<?xml version="1.0" standalone="no"?>
<!DOCTYPE svg PUBLIC "-//W3C//DTD SVG 20010904//EN"
 "http://www.w3.org/TR/2001/REC-SVG-20010904/DTD/svg10.dtd">
<svg version="1.0" xmlns="http://www.w3.org/2000/svg"
 width="226.000000pt" height="150.000000pt" viewBox="0 0 226.000000 150.000000"
 preserveAspectRatio="xMidYMid meet">

<g transform="translate(0.000000,150.000000) scale(0.100000,-0.100000)"
fill="#000000" stroke="none">
<path d="M1496 1457 c-3 -12 -2 -24 2 -27 4 -3 7 -20 7 -39 0 -31 5 -37 48
-58 27 -14 60 -42 77 -65 30 -41 39 -44 20 -7 -8 15 -7 19 4 19 8 0 18 -8 21
-17 4 -10 30 -38 60 -63 29 -25 59 -56 66 -70 31 -58 66 -93 113 -116 27 -13
52 -21 55 -18 8 8 -45 51 -89 72 -19 9 -41 31 -50 47 -8 17 -21 34 -27 38 -7
4 -13 15 -13 23 0 13 3 13 23 0 12 -8 33 -17 47 -21 22 -6 20 -3 -14 29 -28
26 -37 41 -33 57 4 15 2 19 -9 15 -17 -7 -18 5 -2 39 9 19 14 22 21 13 6 -9 7
-8 3 5 -3 10 -6 25 -6 34 0 20 -23 11 -26 -11 -3 -21 -12 -32 -20 -24 -3 4 -1
15 5 26 15 28 5 48 -34 72 -53 33 -63 23 -17 -16 23 -20 42 -43 42 -50 0 -18
-14 -18 -30 1 -7 8 -18 15 -24 15 -6 0 -3 -5 7 -11 24 -14 52 -69 35 -69 -9 0
-8 -3 2 -10 18 -12 2 -12 -25 0 -17 7 -18 9 -2 9 37 2 -14 51 -87 85 -44 20
-85 48 -108 73 -33 38 -37 39 -42 20z m213 -143 c2 -2 -12 -4 -32 -4 -20 0
-38 4 -42 9 -5 9 64 4 74 -5z m54 -92 c9 -8 17 -19 17 -24 0 -11 -56 21 -73
41 -10 11 -8 13 13 6 14 -4 33 -14 43 -23z"/>
<path d="M1549 1446 c19 -20 37 -36 38 -36 9 0 -34 49 -52 60 -11 7 -4 -4 14
-24z"/>
<path d="M703 1422 c-12 -17 -43 -38 -68 -48 -32 -12 -42 -20 -33 -25 9 -6 5
-9 -12 -9 -27 0 -96 -37 -86 -47 3 -3 12 0 20 6 15 12 92 18 103 8 3 -3 -12
-8 -33 -12 -45 -7 -110 -36 -106 -48 1 -4 -4 -20 -12 -35 -8 -16 -14 -43 -14
-60 1 -27 3 -30 16 -20 9 8 10 14 3 16 -20 7 18 62 55 80 30 14 36 14 44 2 7
-12 10 -11 16 4 13 33 75 89 112 100 18 6 22 4 22 -15 0 -18 3 -20 12 -11 17
17 19 64 4 87 -8 12 -15 29 -17 39 -3 15 -8 13 -26 -12z m11 -47 c-4 -8 -10
-15 -14 -15 -5 0 -17 -3 -27 -6 -10 -3 -4 3 12 14 37 25 36 25 29 7z"/>
<path d="M1153 1412 c-9 -14 -13 -15 -24 -4 -18 16 -27 15 -38 -5 -8 -16 -3
-18 40 -20 51 -1 52 0 41 29 -7 17 -8 17 -19 0z"/>
<path d="M1050 1396 c0 -22 3 -27 11 -19 8 8 8 16 0 30 -9 16 -10 14 -11 -11z"/>
<path d="M507 1398 c-9 -7 -24 -31 -33 -53 -14 -32 -18 -37 -23 -22 -12 33
-37 -13 -32 -60 2 -21 21 -15 21 7 0 10 8 24 19 29 10 6 24 24 31 41 7 18 24
36 37 41 25 9 32 29 10 29 -7 0 -21 -6 -30 -12z"/>
<path d="M990 1397 c0 -9 -7 -17 -15 -17 -8 0 -15 5 -15 12 0 9 -3 9 -11 1 -6
-6 -9 -21 -7 -34 3 -21 5 -22 17 -8 9 9 25 14 39 11 23 -4 23 -3 12 19 -17 33
-20 35 -20 16z"/>
<path d="M1245 1403 c6 -4 11 -15 12 -23 2 -13 -11 -15 -82 -12 -92 3 -187
-16 -243 -48 -17 -11 -39 -17 -47 -14 -9 4 -16 -3 -21 -21 -3 -14 -9 -24 -12
-21 -2 3 1 19 8 36 17 41 6 49 -28 18 -15 -14 -58 -44 -96 -66 -83 -49 -175
-122 -176 -139 0 -7 -10 -13 -22 -14 -13 0 -17 -3 -10 -6 18 -7 64 6 58 16 -8
13 31 20 62 12 l27 -8 -40 -17 c-22 -10 -63 -23 -92 -31 -88 -23 -106 -38
-172 -147 -27 -45 -36 -68 -27 -68 8 0 17 11 20 24 3 14 23 42 43 63 20 21 37
42 37 47 1 5 12 15 26 23 23 14 24 14 6 -1 -11 -8 -21 -28 -22 -43 l-3 -28 21
28 c20 27 33 35 87 52 16 5 21 4 17 -4 -11 -17 3 -13 35 9 15 12 42 25 58 31
20 7 28 15 24 25 -3 10 4 16 25 20 16 3 59 33 96 66 53 48 66 65 66 89 0 33
22 48 44 30 10 -8 16 -9 21 -1 3 5 1 10 -5 10 -6 0 -8 5 -4 11 3 6 18 8 33 5
17 -5 21 -4 12 3 -29 19 105 46 184 36 44 -5 55 -10 55 -25 0 -15 -9 -18 -67
-18 -38 0 -84 -4 -103 -8 -19 -4 -46 -7 -60 -8 -14 -1 -29 -7 -33 -13 -4 -7
-14 -13 -21 -13 -9 0 -12 -19 -11 -65 1 -59 4 -68 28 -88 15 -13 28 -35 30
-52 3 -27 7 -30 38 -28 57 2 153 5 177 4 14 -1 27 -10 34 -26 6 -13 14 -23 17
-20 4 2 13 0 21 -6 17 -10 5 -12 -72 -9 -27 1 -48 -3 -48 -8 0 -8 39 -8 148
-3 6 1 12 6 12 12 0 5 -4 8 -9 4 -16 -9 -41 37 -41 76 0 29 7 43 29 62 28 23
29 27 30 120 1 74 -2 98 -13 104 -8 4 -16 22 -18 38 -2 23 -8 31 -28 33 -14 2
-20 -1 -15 -5z m55 -107 c0 -3 -4 -8 -10 -11 -5 -3 -10 -1 -10 4 0 6 5 11 10
11 6 0 10 -2 10 -4z m-90 -36 c0 -6 -5 -10 -11 -10 -5 0 -8 4 -5 9 6 10 -54 8
-71 -2 -6 -4 -13 -2 -15 4 -3 8 -9 7 -19 -3 -8 -8 -21 -17 -29 -21 -8 -3 12
-6 45 -7 102 -4 132 -17 40 -18 -44 -1 -105 -8 -135 -16 -68 -19 -74 -15 -15
9 25 11 45 23 45 27 0 12 -14 10 -28 -4 -10 -10 -15 -10 -21 1 -5 7 -13 11
-19 7 -6 -3 -13 -2 -16 3 -9 14 61 34 144 41 73 6 110 -1 110 -20z m-10 -70
c17 -6 8 -7 -29 -4 -43 5 -52 3 -45 -8 6 -11 5 -11 -8 0 -13 10 -26 10 -62 1
-54 -13 -75 -5 -25 10 42 11 135 12 169 1z m-415 -30 c-14 -15 -30 -20 -69
-19 l-51 1 58 13 c32 7 61 15 64 19 16 16 14 4 -2 -14z m335 -60 l-45 -6 42
-8 c57 -11 63 -33 13 -41 -45 -8 -60 -1 -60 26 0 10 -4 19 -10 19 -5 0 -10
-11 -10 -25 0 -14 -4 -25 -9 -25 -15 0 -3 44 16 58 9 6 37 11 62 10 l46 -1
-45 -7z m87 -46 c-3 -3 -12 -4 -19 -1 -8 3 -5 6 6 6 11 1 17 -2 13 -5z m-690
-20 c-3 -3 -12 -4 -19 -1 -8 3 -5 6 6 6 11 1 17 -2 13 -5z"/>
<path d="M1490 1336 c0 -2 7 -9 15 -16 13 -11 14 -10 9 4 -5 14 -24 23 -24 12z"/>
<path d="M774 1309 c-19 -22 -19 -22 3 -10 24 12 39 31 25 31 -5 0 -17 -10
-28 -21z"/>
<path d="M1374 1305 c6 -25 -8 -35 -18 -12 -3 6 -3 -1 0 -18 3 -16 15 -42 25
-57 10 -15 19 -31 19 -37 0 -15 90 -61 121 -61 17 0 37 -10 51 -24 21 -22 131
-66 166 -66 8 0 31 -17 50 -37 20 -21 33 -30 29 -20 -5 14 -3 18 11 15 9 -2
18 -13 20 -26 2 -12 7 -20 12 -17 4 3 16 -7 25 -21 16 -25 16 -51 -1 -99 l-6
-20 14 20 c25 34 31 75 13 101 -9 14 -13 30 -9 36 4 6 3 8 -3 5 -6 -4 -18 4
-26 17 -17 26 -165 153 -244 209 -43 31 -236 137 -250 137 -3 0 -2 -11 1 -25z
m44 -62 c17 -16 10 -16 -23 -1 -14 6 -25 15 -25 19 0 11 31 -1 48 -18z m82
-43 c11 -7 7 -10 -19 -10 -61 0 -23 -14 42 -15 70 -1 80 -16 17 -27 -44 -8
-102 13 -129 46 -12 14 -8 16 30 16 24 0 51 -5 59 -10z m135 -70 c3 -5 19 -10
35 -10 16 0 32 -4 35 -10 8 -14 -29 -12 -90 4 -28 7 -43 15 -35 19 24 9 48 8
55 -3z m130 -73 c20 -18 19 -18 -17 0 -21 10 -38 21 -38 25 0 11 33 -4 55 -25z"/>
<path d="M1880 1274 c0 -34 12 -84 20 -84 17 0 15 47 -2 75 -16 26 -18 27 -18
9z"/>
<path d="M377 1229 c4 -13 8 -18 11 -10 2 7 -1 18 -6 23 -8 8 -9 4 -5 -13z"/>
<path d="M391 1179 c0 -15 -8 -32 -17 -39 -8 -8 -20 -22 -25 -32 -10 -19 -10
-19 15 -2 28 17 41 50 33 81 -3 12 -5 10 -6 -8z"/>
<path d="M430 1160 c0 -22 -9 -36 -36 -57 -19 -15 -49 -40 -66 -55 -18 -16
-35 -28 -39 -28 -4 0 -12 -14 -18 -32 l-11 -32 27 26 c16 15 40 30 55 33 15 4
32 13 39 21 6 8 17 14 23 14 6 0 17 10 25 23 13 21 13 21 -5 5 -10 -9 -32 -19
-49 -22 -30 -6 -30 -6 -5 6 58 29 72 45 75 87 1 23 -1 41 -6 41 -5 0 -9 -13
-9 -30z"/>
<path d="M1845 1120 c10 -11 21 -17 25 -15 4 3 19 -5 33 -18 81 -69 106 -79
71 -28 -21 29 -102 81 -128 81 -18 0 -18 -1 -1 -20z"/>
<path d="M2039 1104 c-12 -15 -11 -16 9 -9 20 6 23 4 20 -11 -1 -10 -7 -16
-11 -13 -5 2 -13 -4 -19 -15 -8 -15 -12 -16 -19 -5 -6 9 -9 -3 -9 -33 0 -47
-31 -118 -52 -118 -5 0 -6 -4 -3 -10 8 -13 -23 -72 -35 -65 -4 3 -26 -23 -48
-58 -22 -34 -47 -68 -56 -76 -15 -12 -15 -11 -1 22 24 58 16 67 -11 12 -32
-64 -117 -152 -172 -177 -52 -23 -62 -20 -22 7 26 17 70 81 70 101 0 4 -11 -3
-25 -16 -14 -13 -27 -21 -30 -18 -3 3 10 17 30 32 19 15 35 36 35 47 0 27 -19
24 -30 -6 -12 -31 -20 -33 -13 -2 4 21 4 21 -11 3 -8 -10 -13 -23 -10 -28 3
-5 0 -15 -6 -23 -6 -8 -9 -18 -6 -23 5 -8 -45 -52 -59 -52 -4 0 3 12 14 26 12
15 21 33 21 42 0 8 -12 -3 -26 -24 -34 -50 -44 -58 -134 -101 -41 -19 -88 -42
-105 -50 l-30 -15 30 26 c17 14 33 25 36 26 14 0 31 62 26 89 -5 23 -2 30 18
39 20 9 24 17 20 39 -3 15 -9 64 -15 109 -12 110 -24 134 -66 134 -18 0 -36
-5 -40 -11 -4 -7 5 -10 27 -7 30 3 34 0 36 -24 1 -20 -2 -25 -13 -21 -8 3 -14
0 -14 -7 0 -6 -4 -8 -10 -5 -6 4 -10 -5 -10 -19 0 -14 4 -26 10 -26 5 0 8 6 6
13 -1 6 -1 9 1 5 8 -15 22 -8 17 7 -4 8 -2 15 4 15 5 0 12 -10 14 -23 4 -22 2
-23 -76 -25 -45 -2 -76 1 -69 5 6 5 10 22 8 38 -1 17 2 36 7 43 8 9 6 12 -6
12 -17 0 -20 -30 -17 -162 2 -72 -11 -95 -37 -62 -14 18 -14 18 -8 0 6 -18 1
-18 -111 -13 -65 4 -123 7 -129 7 -8 0 -11 19 -10 53 l1 52 38 3 c59 5 33 22
-34 22 l-59 0 0 41 c0 27 -4 39 -12 37 -18 -6 -27 -51 -25 -133 1 -44 -2 -75
-8 -75 -5 -1 3 -8 18 -16 24 -13 45 -57 37 -80 -1 -4 2 -10 7 -13 4 -3 13 -16
20 -28 12 -22 12 -22 -43 3 -30 13 -66 31 -79 40 l-25 16 23 18 c16 13 24 15
29 7 12 -20 9 19 -4 48 -12 28 -28 33 -28 10 0 -9 -16 -25 -35 -36 -19 -12
-35 -25 -35 -29 0 -13 63 -59 86 -63 24 -4 67 -27 61 -33 -7 -7 -70 18 -112
45 -22 14 -44 24 -48 23 -4 -1 -29 14 -54 33 -47 36 -71 45 -56 23 4 -7 8 -20
10 -28 3 -24 103 -108 121 -104 10 3 51 -9 92 -25 41 -16 71 -30 67 -30 -17
-2 -102 22 -112 30 -15 15 -28 10 -15 -5 8 -11 -1 -9 -29 5 -29 14 -51 18 -79
13 -28 -4 -52 0 -84 14 -24 10 -71 23 -103 27 -77 9 -130 31 -157 64 -16 19
-19 21 -14 6 5 -11 9 -26 10 -34 1 -7 10 -18 19 -23 24 -13 11 -28 -24 -28
-39 0 -48 -24 -19 -56 16 -16 34 -24 56 -24 18 0 44 -4 59 -10 15 -6 40 -6 63
-1 l37 9 -42 1 c-24 1 -73 15 -113 32 -74 34 -90 50 -24 25 58 -21 94 -28 94
-16 0 5 -4 10 -10 10 -5 0 -10 3 -10 8 0 4 35 7 78 7 75 0 152 -23 152 -46 0
-5 14 -9 31 -9 36 0 36 -23 -1 -28 -13 -2 -29 -10 -36 -17 -19 -19 -142 -39
-194 -31 -81 10 -238 16 -202 7 46 -12 49 -18 30 -51 l-17 -29 45 6 c55 7 115
-17 161 -65 29 -31 36 -34 75 -29 68 8 105 20 132 45 30 25 46 28 46 8 0 -14
29 -26 68 -26 13 0 20 4 17 10 -4 6 5 10 19 10 14 0 26 -5 26 -11 0 -6 7 -9
15 -5 9 3 24 -3 36 -15 11 -11 24 -17 29 -14 6 4 10 1 10 -4 0 -6 4 -11 10
-11 6 0 6 9 0 26 -12 31 -12 37 -1 30 5 -3 11 8 15 25 6 31 6 31 55 24 31 -4
51 -3 56 4 10 17 45 13 45 -5 0 -14 10 -15 83 -9 45 4 84 11 85 16 5 13 36 11
50 -3 9 -9 18 -9 37 0 38 18 62 15 68 -8 4 -14 10 -18 22 -13 16 6 16 5 1 -19
-14 -21 -14 -26 -3 -31 8 -3 25 4 37 16 18 17 33 21 61 19 l37 -4 -14 -34 c-8
-18 -14 -46 -14 -61 l0 -27 -32 31 -33 32 -29 -24 c-23 -18 -29 -32 -30 -64 0
-23 2 -41 5 -41 3 0 18 13 34 30 35 37 43 37 72 3 l22 -28 1 28 c0 15 4 35 9
45 5 9 13 35 18 56 7 34 13 41 41 48 25 7 32 14 32 33 0 22 2 24 26 15 15 -6
39 -20 55 -31 16 -11 34 -19 41 -17 7 1 28 -6 46 -15 32 -17 34 -17 72 4 24
14 40 30 40 41 0 10 6 18 14 18 8 0 28 11 44 24 23 20 42 26 93 28 l64 3 -32
20 c-41 25 -41 32 -3 40 17 4 28 10 25 15 -3 4 -31 2 -63 -5 -65 -15 -178 -33
-237 -38 -42 -4 -105 10 -170 37 -56 24 -28 39 50 26 55 -9 61 -8 113 21 49
29 55 30 70 16 14 -15 12 -17 -26 -23 -55 -9 -61 -20 -15 -29 23 -4 38 -2 43
5 4 6 27 14 51 17 24 3 41 3 38 -1 -3 -3 -20 -8 -38 -10 -17 -2 -35 -6 -38
-10 -10 -9 28 -7 69 4 26 8 35 15 31 25 -3 10 5 19 25 26 46 16 82 75 82 135
l0 49 -16 -30 c-19 -37 -34 -53 -34 -37 0 7 -9 3 -20 -8 -11 -11 -25 -20 -31
-20 -14 0 -1 20 14 20 7 0 20 17 31 38 l18 37 -22 -20 -23 -20 8 24 c5 16 4
21 -4 17 -8 -5 -8 0 -1 20 7 19 7 29 1 34 -6 3 -2 12 9 20 11 8 20 20 20 27 0
7 7 13 15 13 20 0 19 -12 -7 -56 -12 -21 -16 -34 -9 -30 8 5 17 3 23 -5 6 -10
7 -7 3 10 -6 19 -4 23 9 18 13 -5 16 0 16 28 0 26 9 45 35 73 33 37 42 80 20
100 -4 4 -5 2 -2 -4 4 -7 -5 -17 -23 -24 -16 -6 -54 -38 -84 -70 -47 -49 -56
-65 -56 -94 0 -50 -34 -118 -71 -140 -35 -21 -158 -58 -170 -51 -4 3 -10 1
-14 -5 -3 -5 2 -10 12 -10 27 -1 -34 -32 -79 -40 -38 -7 -52 2 -22 14 9 4 14
9 11 12 -3 3 -18 -1 -34 -9 -15 -8 -45 -17 -65 -21 -39 -7 -53 -26 -19 -26 13
0 18 -6 17 -17 -2 -13 -14 -19 -46 -21 -23 -2 -60 -9 -82 -17 -47 -16 -80 -10
-51 10 10 6 41 20 68 30 28 10 62 29 77 43 14 13 31 21 37 17 7 -3 10 -1 9 6
-3 14 0 15 94 24 63 6 69 9 126 61 57 51 61 53 65 32 4 -17 5 -15 4 7 0 17 3
40 7 53 7 22 8 23 22 5 14 -17 14 -16 13 7 -5 57 13 119 38 135 19 13 27 14
39 4 11 -9 14 -8 14 5 0 9 -6 16 -12 16 -7 1 -2 10 12 21 17 15 32 19 53 15
25 -5 28 -4 18 8 -10 12 -9 13 7 9 16 -4 21 2 27 34 15 75 13 103 -5 103 -10
0 -23 -7 -30 -15 -7 -8 -17 -15 -23 -15 -6 0 2 13 17 29 22 23 27 36 22 55 -7
30 -27 34 -47 10z m61 -93 c0 -5 -12 -23 -26 -40 -14 -17 -21 -31 -15 -31 5 0
13 5 16 10 3 6 11 10 17 10 7 0 6 -6 -2 -15 -7 -8 -20 -15 -30 -15 -25 0 -21
57 5 76 22 16 35 18 35 5z m-215 -281 c-23 -44 -122 -143 -135 -135 -6 4 -9 1
-8 -5 2 -7 -8 -16 -22 -21 -15 -6 10 24 66 78 50 49 95 99 99 113 5 14 10 20
12 13 2 -6 -3 -26 -12 -43z m-973 -24 c-4 -51 -6 -56 -27 -56 -23 0 -45 32
-26 38 6 2 8 8 5 14 -16 26 -9 53 16 59 14 3 27 4 30 3 3 -1 3 -27 2 -58z
m466 49 c4 -4 1 -10 -7 -13 -10 -3 -8 -9 9 -22 l24 -18 -27 5 c-16 3 -27 1
-27 -6 0 -6 8 -11 19 -11 10 0 23 -6 29 -13 9 -10 5 -13 -16 -15 -15 -2 -36
-4 -47 -5 -16 -2 -20 5 -23 42 -1 24 -1 50 2 57 5 13 51 12 64 -1z m-78 -50
c0 -37 -4 -55 -12 -55 -7 0 -23 -3 -35 -6 -22 -6 -23 -4 -23 55 l0 61 35 0 35
0 0 -55z m44 -71 c19 -7 21 -43 4 -49 -7 -2 -31 -6 -53 -9 -34 -6 -37 -4 -24
6 14 11 14 15 3 26 -15 13 -28 16 -20 4 2 -4 1 -14 -5 -22 -7 -13 -9 -13 -9 0
-1 11 -4 10 -15 -4 -15 -20 -15 -20 -15 0 0 15 -2 16 -9 5 -5 -8 -14 -10 -21
-6 -9 5 -11 4 -6 -3 4 -7 2 -12 -3 -12 -6 0 -11 5 -11 12 0 9 -3 9 -12 0 -15
-15 -32 -16 -23 -2 3 6 1 10 -4 10 -6 0 -11 -6 -11 -14 0 -8 -4 -18 -10 -21
-6 -4 -9 3 -7 16 3 29 -23 37 -30 10 -3 -12 -9 -21 -13 -21 -5 0 -6 9 -3 21 5
19 -9 38 -28 39 -17 0 -19 -36 -2 -49 17 -13 17 -13 0 -7 -50 17 -69 17 -91 3
-23 -16 -24 -15 -28 12 -7 46 15 52 165 46 72 -4 152 -2 177 3 56 12 84 14
104 6z m291 -34 c-18 -29 -192 -122 -224 -120 -3 1 41 25 97 54 57 30 109 59
115 65 14 14 20 14 12 1z m-595 -4 c0 -11 -19 -15 -25 -6 -3 5 1 10 9 10 9 0
16 -2 16 -4z m-405 -16 c4 -6 35 -25 71 -42 35 -17 62 -33 60 -35 -6 -6 -133
56 -146 72 -8 10 -9 15 -2 15 6 0 14 -5 17 -10z m1404 -33 c-14 -7 -33 -18
-42 -25 -22 -19 -87 -33 -112 -25 -19 6 -18 7 5 14 14 4 39 7 57 8 17 1 34 5
37 10 4 5 -4 7 -16 5 -13 -2 -5 3 17 10 51 18 93 20 54 3z m-735 -38 c-19 -22
-19 -22 4 -10 12 6 22 18 22 26 0 8 5 15 10 15 21 0 8 -20 -39 -59 -48 -40
-69 -52 -56 -31 4 6 2 17 -4 24 -8 9 -5 18 13 33 23 20 56 33 65 26 2 -1 -4
-13 -15 -24z m-304 10 c0 -5 4 -8 9 -4 6 3 13 -1 18 -9 6 -12 18 -13 58 -5 27
5 70 6 95 3 l46 -6 0 -57 c-1 -50 -3 -56 -24 -59 -12 -2 -27 -12 -32 -23 -13
-23 -55 -25 -64 -4 -3 8 -14 15 -25 15 -22 0 -31 19 -31 64 0 35 -34 79 -42
55 -3 -9 -14 -4 -34 14 l-29 27 28 0 c15 0 27 -5 27 -11z m525 -28 c-34 -32
-171 -81 -223 -80 -27 1 -36 4 -21 6 14 2 77 24 140 47 63 24 116 44 119 45 2
1 -4 -8 -15 -18z m279 7 c-5 -8 -2 -9 9 -5 9 3 19 2 22 -3 3 -5 -4 -12 -17
-14 -43 -9 -98 -15 -98 -11 0 6 72 44 83 45 5 0 5 -5 1 -12z m-965 -93 c13
-13 9 -14 -30 -14 -24 0 -59 -2 -77 -5 -28 -4 -33 -2 -28 10 3 9 6 19 6 24 0
24 102 13 129 -15z m-146 -5 c-3 -11 -9 -20 -15 -20 -5 0 -4 9 2 20 6 11 12
20 14 20 2 0 2 -9 -1 -20z m322 10 c-3 -5 -15 -10 -26 -10 -11 0 -17 5 -14 10
3 6 15 10 26 10 11 0 17 -4 14 -10z m-125 -21 c0 -14 -17 -10 -23 5 -4 10 -1
13 9 9 7 -3 14 -9 14 -14z m140 -13 c-6 -8 -19 -12 -27 -9 -14 6 -14 8 3 14
30 12 37 10 24 -5z m268 4 c15 0 15 -2 2 -10 -22 -14 -37 -12 -44 6 -5 12 -2
15 10 10 8 -3 23 -6 32 -6z m241 -9 c12 -8 8 -11 -15 -16 -16 -3 -50 -14 -76
-24 -41 -16 -49 -17 -59 -5 -14 17 -13 18 26 38 33 17 102 21 124 7z m-679
-20 c16 -30 13 -31 -31 -16 -23 8 -53 15 -68 16 -23 0 -24 1 -6 9 38 16 93 11
105 -9z m471 -1 c-26 -22 -56 -26 -67 -9 -4 7 0 9 12 5 11 -3 30 1 44 8 35 20
39 18 11 -4z m384 -13 c0 -1 7 -10 14 -20 11 -13 2 -11 -38 9 -59 31 -69 52
-14 29 20 -9 37 -17 38 -18z m-680 13 c-3 -5 -16 -10 -28 -9 -21 0 -21 1 -2 9
28 12 37 12 30 0z m-431 -51 c-3 -5 -15 -14 -27 -20 -18 -9 -20 -9 -9 2 24 25
12 30 -20 8 -24 -18 -45 -23 -86 -23 -29 1 -58 6 -65 13 -8 8 -8 11 1 11 28 0
9 20 -30 32 -33 9 -38 13 -21 16 12 2 37 -1 56 -6 19 -5 51 -8 72 -5 35 4 37
3 24 -14 -13 -17 -13 -17 7 0 12 10 34 20 50 23 16 3 31 7 33 10 8 7 22 -37
15 -47z m26 31 c0 -5 -5 -10 -11 -10 -5 0 -7 5 -4 10 3 6 8 10 11 10 2 0 4 -4
4 -10z m1188 -12 c23 -12 30 -28 12 -28 -14 0 -90 39 -90 45 0 7 50 -4 78 -17z
m60 -5 c5 -18 -16 -16 -35 3 -15 14 -14 16 7 12 13 -1 25 -9 28 -15z m-1031
-69 c-3 -3 -12 -4 -19 -1 -8 3 -5 6 6 6 11 1 17 -2 13 -5z"/>
<path d="M197 1081 c-41 -46 -37 -141 6 -141 6 0 0 11 -13 25 -13 14 -19 25
-13 25 17 0 25 32 11 42 -10 6 -10 8 0 8 6 0 12 7 12 16 0 8 4 13 9 10 8 -5
24 34 17 41 -1 2 -14 -10 -29 -26z"/>
<path d="M1483 1046 c6 -51 29 -106 47 -106 19 0 113 -86 141 -131 33 -50 43
-57 54 -39 3 6 -2 10 -12 11 -16 0 60 28 79 29 12 0 -11 -65 -28 -77 -8 -6
-14 -15 -12 -20 2 -4 -4 -8 -12 -9 -31 -2 -35 -5 -20 -14 10 -7 12 -12 4 -17
-6 -5 -11 -16 -11 -26 1 -44 74 68 95 146 9 33 8 41 -8 57 -16 16 -24 17 -55
7 -31 -9 -42 -8 -71 8 -35 19 -46 45 -18 45 11 0 14 -5 10 -16 -5 -12 -1 -14
17 -8 12 4 37 7 54 7 l33 -1 -36 29 c-34 27 -48 33 -67 30 -4 -1 -27 8 -52 20
-42 20 -49 28 -46 55 1 12 -58 68 -78 72 -10 2 -12 -10 -8 -52z m62 -6 c10
-11 14 -20 9 -20 -5 0 -15 9 -22 20 -7 11 -11 20 -9 20 2 0 12 -9 22 -20z m15
-57 c0 -4 -34 10 -47 20 -28 21 -11 26 17 5 17 -12 30 -23 30 -25z m33 -30
c-7 -2 -19 -2 -25 0 -7 3 -2 5 12 5 14 0 19 -2 13 -5z"/>
<path d="M726 1065 c-37 -57 -101 -117 -157 -145 -30 -16 -61 -35 -68 -44 -15
-17 -1 -22 15 -6 16 16 70 29 84 20 18 -11 8 -40 -21 -62 -22 -17 -32 -18 -62
-10 -31 9 -41 7 -59 -8 -21 -17 -22 -21 -11 -51 16 -42 72 -135 100 -165 12
-13 18 -24 12 -24 -5 0 -30 21 -54 48 -25 26 -45 42 -45 35 0 -13 49 -73 90
-110 33 -30 12 -29 -29 1 -37 27 -85 81 -125 140 l-26 39 2 -74 c1 -48 3 -59
5 -31 2 23 8 42 13 42 16 0 28 -34 23 -61 -3 -15 -1 -29 5 -33 5 -3 7 5 4 19
-6 33 9 31 36 -4 12 -17 37 -42 57 -57 28 -21 38 -24 49 -15 8 7 26 9 43 6 28
-7 28 -7 -5 14 -19 12 -32 27 -29 34 2 7 -9 27 -25 45 -15 18 -42 60 -58 92
l-30 59 33 9 c17 5 37 5 43 1 6 -5 14 -5 19 -1 4 4 5 -4 2 -18 -6 -24 -5 -24
8 -6 8 11 18 17 21 13 4 -4 13 -2 21 5 11 9 12 7 7 -8 -5 -14 -4 -16 5 -8 7 6
14 26 16 45 4 26 19 48 69 94 69 65 92 115 63 138 -9 7 -17 26 -19 42 l-3 30
-19 -30z m-7 -81 c-34 -36 -45 -29 -12 9 15 18 30 29 32 24 2 -4 -7 -19 -20
-33z"/>
<path d="M391 1026 c-7 -8 -36 -29 -66 -47 -30 -18 -55 -39 -55 -47 0 -7 -5
-10 -11 -6 -14 8 -2 -36 13 -51 7 -7 8 -2 3 13 -9 29 19 62 74 86 20 10 43 26
50 38 15 24 9 35 -8 14z"/>
<path d="M656 1012 l-19 -27 26 24 c28 26 32 31 20 31 -5 0 -17 -13 -27 -28z"/>
<path d="M1650 1030 c0 -5 5 -10 11 -10 5 0 7 5 4 10 -3 6 -8 10 -11 10 -2 0
-4 -4 -4 -10z"/>
<path d="M1147 1013 c-4 -3 -7 -11 -7 -17 0 -6 5 -5 12 2 6 6 9 14 7 17 -3 3
-9 2 -12 -2z"/>
<path d="M1126 973 c-4 -4 -49 -6 -101 -5 -64 2 -95 -1 -95 -9 0 -7 13 -8 40
-4 22 4 40 4 40 1 0 -15 -83 -56 -115 -56 -19 0 -35 -5 -35 -10 0 -6 17 -8 43
-4 52 7 56 7 85 -1 14 -5 22 -3 22 4 0 6 -12 11 -26 11 l-26 0 31 25 c23 20
42 26 86 27 31 1 58 6 62 10 7 12 -1 20 -11 11z"/>
<path d="M1937 956 c10 -13 20 -20 21 -15 5 12 -17 39 -30 39 -5 0 -1 -11 9
-24z"/>
<path d="M304 925 c-24 -37 -12 -40 18 -5 17 20 21 30 12 30 -7 0 -21 -11 -30
-25z"/>
<path d="M190 915 c13 -14 26 -25 28 -25 3 0 -5 11 -18 25 -13 14 -26 25 -28
25 -3 0 5 -11 18 -25z"/>
<path d="M899 923 c-13 -16 -12 -17 4 -4 9 7 17 15 17 17 0 8 -8 3 -21 -13z"/>
<path d="M1217 903 c6 -15 41 -17 62 -4 9 6 1 10 -27 12 -29 3 -38 1 -35 -8z"/>
<path d="M1170 895 c-7 -9 -29 -15 -51 -15 -37 0 -79 -23 -79 -43 0 -5 6 -4
13 2 8 6 17 7 21 3 4 -4 6 0 4 8 -2 11 7 15 37 15 26 0 39 -4 38 -12 -2 -7 4
-10 12 -6 12 4 13 8 4 20 -10 11 -8 15 9 20 12 3 22 9 22 14 0 14 -16 11 -30
-6z"/>
<path d="M1038 893 c7 -3 16 -2 19 1 4 3 -2 6 -13 5 -11 0 -14 -3 -6 -6z"/>
<path d="M1800 890 c0 -5 5 -10 10 -10 6 0 10 5 10 10 0 6 -4 10 -10 10 -5 0
-10 -4 -10 -10z"/>
<path d="M187 879 c7 -7 15 -10 18 -7 3 3 -2 9 -12 12 -14 6 -15 5 -6 -5z"/>
<path d="M1321 864 c0 -11 3 -14 6 -6 3 7 2 16 -1 19 -3 4 -6 -2 -5 -13z"/>
<path d="M726 780 c-31 -66 -37 -87 -31 -116 l6 -36 25 23 c13 12 24 29 24 37
0 9 -7 6 -20 -9 -17 -21 -19 -21 -14 -4 4 11 14 29 24 40 22 26 45 124 33 136
-6 6 -24 -20 -47 -71z"/>
<path d="M287 836 c-4 -10 -3 -14 2 -11 5 3 11 -6 13 -19 2 -18 6 -21 14 -12
9 10 7 18 -6 36 -15 20 -18 20 -23 6z"/>
<path d="M123 822 c10 -10 15 -21 12 -24 -3 -3 1 -11 10 -18 13 -11 14 -10 9
5 -6 15 -5 16 17 3 13 -7 34 -22 47 -32 34 -30 26 -4 -10 31 -35 33 -69 53
-89 53 -8 0 -6 -6 4 -18z"/>
<path d="M685 792 c-34 -21 -60 -63 -52 -84 3 -7 6 -4 6 9 1 12 19 37 43 57
47 40 47 45 3 18z"/>
<path d="M1506 790 c9 -34 44 -98 44 -80 -1 8 -12 35 -26 60 -13 25 -22 34
-18 20z"/>
<path d="M1991 794 c0 -11 3 -14 6 -6 3 7 2 16 -1 19 -3 4 -6 -2 -5 -13z"/>
<path d="M1177 789 c7 -7 15 -10 18 -7 3 3 -2 9 -12 12 -14 6 -15 5 -6 -5z"/>
<path d="M1018 783 c6 -2 18 -2 25 0 6 3 1 5 -13 5 -14 0 -19 -2 -12 -5z"/>
<path d="M1148 773 c7 -3 16 -2 19 1 4 3 -2 6 -13 5 -11 0 -14 -3 -6 -6z"/>
<path d="M311 763 c-1 -6 -4 -20 -7 -30 -5 -17 -5 -17 6 0 6 10 9 23 6 30 -3
9 -5 9 -5 0z"/>
<path d="M1631 765 c1 -19 18 -51 18 -35 0 8 -4 22 -9 30 -5 8 -9 11 -9 5z"/>
<path d="M1018 753 c6 -2 18 -2 25 0 6 3 1 5 -13 5 -14 0 -19 -2 -12 -5z"/>
<path d="M343 727 c-14 -30 -32 -111 -23 -100 9 9 41 116 36 120 -1 2 -7 -7
-13 -20z"/>
<path d="M1145 740 c-19 -8 -19 -9 3 -9 12 -1 22 4 22 9 0 6 -1 10 -2 9 -2 0
-12 -4 -23 -9z"/>
<path d="M1050 730 c-8 -5 -10 -10 -5 -10 6 0 17 5 25 10 8 5 11 10 5 10 -5 0
-17 -5 -25 -10z"/>
<path d="M186 712 c-3 -6 5 -17 19 -26 29 -19 33 -7 6 18 -11 10 -22 13 -25 8z"/>
<path d="M1146 690 c-11 -24 -12 -30 -1 -30 7 0 15 14 17 30 3 17 3 30 2 30
-1 0 -9 -13 -18 -30z"/>
<path d="M590 672 c0 -5 7 -15 15 -22 8 -7 15 -8 15 -2 0 5 -7 15 -15 22 -8 7
-15 8 -15 2z"/>
<path d="M1070 670 c0 -5 5 -10 11 -10 5 0 7 5 4 10 -3 6 -8 10 -11 10 -2 0
-4 -4 -4 -10z"/>
<path d="M1480 661 c0 -6 11 -23 24 -38 17 -19 28 -25 35 -18 6 6 7 15 3 20
-12 17 -62 46 -62 36z"/>
<path d="M840 592 c0 -11 5 -24 10 -27 6 -4 9 2 7 14 -4 29 -17 39 -17 13z"/>
<path d="M670 596 c0 -2 8 -10 18 -17 15 -13 16 -12 3 4 -13 16 -21 21 -21 13z"/>
<path d="M230 539 c0 -12 24 -22 45 -17 12 2 7 7 -14 15 -18 6 -31 7 -31 2z"/>
<path d="M840 546 c0 -2 7 -7 16 -10 8 -3 12 -2 9 4 -6 10 -25 14 -25 6z"/>
<path d="M718 473 c7 -3 16 -2 19 1 4 3 -2 6 -13 5 -11 0 -14 -3 -6 -6z"/>
<path d="M490 440 c37 -12 102 -12 95 0 -3 6 -32 10 -63 9 -44 -1 -51 -3 -32
-9z"/>
<path d="M820 190 c0 -20 -2 -22 -10 -10 -8 13 -10 12 -10 -2 0 -21 13 -23 28
-5 7 8 7 18 2 27 -8 12 -10 9 -10 -10z"/>
<path d="M833 160 c-23 -29 -30 -50 -15 -50 5 0 13 -12 19 -27 l10 -28 13 33
c13 35 30 41 50 17 7 -8 17 -15 23 -15 5 0 16 -8 23 -18 9 -12 8 1 -4 48 -9
36 -18 57 -20 48 -4 -23 -11 -22 -42 2 -31 24 -30 25 -57 -10z"/>
</g>
</svg>
